<?xml version="1.0" encoding="utf-8"?>
<!-- Generator: Adobe Illustrator 16.0.0, SVG Export Plug-In . SVG Version: 6.00 Build 0)  -->
<!DOCTYPE svg PUBLIC "-//W3C//DTD SVG 1.1//EN" "http://www.w3.org/Graphics/SVG/1.1/DTD/svg11.dtd">
<svg version="1.1" id="Calque_1" xmlns="http://www.w3.org/2000/svg" xmlns:xlink="http://www.w3.org/1999/xlink" x="0px" y="0px"
	 width="960px" height="560px" viewBox="0 0 960 560" enable-background="new 0 0 960 560" xml:space="preserve">
<path fill="#FFFFFF" d="M392.247,176.737c0.204-1.765,0.853-3.939,1.6-6.304C393.504,172.587,392.973,174.692,392.247,176.737z"/>
<path fill="#FFFFFF" d="M358.078,128.352c14.321,0.039,27.883,8.584,33.596,22.678c-2.519-1.475-5.332-2.006-8.237-1.982
	C376.156,141.191,366.773,134.789,358.078,128.352z"/>
<path fill="#FFFFFF" d="M344.337,131.001c4.509-1.829,9.165-2.664,13.741-2.649c8.695,6.437,18.078,12.839,25.359,20.696
	c-9.214,0.067-19.343,5.819-23.701,5.819c-11.688-0.585-23.481-2.038-35.27-4.21C328.079,142.03,334.992,134.793,344.337,131.001z"
	/>
<path fill="#FFFFFF" d="M359.736,154.867c4.358,0,14.487-5.752,23.701-5.819c4.748,5.128,8.584,10.884,10.764,17.68
	c-0.079,1.238-0.153,2.482-0.354,3.704c-0.747,2.365-1.396,4.539-1.6,6.304c-3.338,9.492-10.539,17.576-20.596,21.65
	c-18.604,7.541-39.813-1.433-47.355-20.037c-3.744-9.258-3.407-19.154,0.171-27.692C336.255,152.83,348.047,154.282,359.736,154.867
	z"/>
<path fill="#FFFFFF" d="M391.674,151.03c0,0.006,0,0.006,0,0.01c2.089,5.153,2.831,10.487,2.526,15.688
	c-2.179-6.796-6.016-12.552-10.764-17.68C386.342,149.024,389.156,149.555,391.674,151.03z"/>
<path fill="#FFFFFF" d="M304.067,29.485c11.89-4.818,25.443,0.911,30.261,12.81c4.818,11.886-0.919,25.437-12.803,30.253
	c-1.48,0.603-2.992,1.038-4.501,1.321c-5.701-13.848-10.248-28.872-14.136-43.834C303.284,29.85,303.657,29.648,304.067,29.485z"/>
<path fill="#FFFFFF" d="M302.889,30.036c3.888,14.962,8.436,29.986,14.136,43.834c-10.639,1.981-21.548-3.71-25.767-14.119
	C286.602,48.26,291.815,35.252,302.889,30.036z"/>
<path fill="#FFFFFF" d="M409.655,374.693c5.708,3.27,11.549,5.096,17.647,6.957C420.899,380.945,414.813,378.513,409.655,374.693z"
	/>
<path fill="#FFFFFF" d="M464.964,355.46c-1.764,7.083-9.245,13.213-13.732,20.438c-1.954,1.28-4.053,2.399-6.296,3.312
	c-5.792,2.343-11.833,3.089-17.633,2.44c-6.099-1.861-11.939-3.688-17.647-6.957c-5.207-3.845-9.465-9.088-12.068-15.519
	c-4.669-11.522-2.992-24.03,3.364-33.679c1.558-1.345,3.187-2.37,4.825-2.921c8.903-5.557,18.544-9.24,27.291-13.33
	c10.614,0.534,20.606,5.745,27.128,14.351C464.097,333.805,467.208,344.246,464.964,355.46z"/>
<path fill="#FFFFFF" d="M451.232,375.898c4.487-7.226,11.968-13.355,13.732-20.438c2.244-11.214-0.867-21.655-4.769-31.864
	c1.895,2.493,3.534,5.229,4.769,8.27C471.595,348.228,465.454,366.582,451.232,375.898z"/>
<path fill="#FFFFFF" d="M417.629,311.832c5.062-2.053,10.318-2.843,15.438-2.587c-8.747,4.09-18.388,7.773-27.291,13.33
	c-1.638,0.551-3.267,1.576-4.825,2.921C404.868,319.562,410.544,314.704,417.629,311.832z"/>
<path d="M466.417,428.095c-0.572-0.078-1.156-0.134-1.728-0.212c-0.404-1.706-0.797-3.414-1.191-5.107
	c0.481,0.6,0.945,1.22,1.466,1.741C465.598,425.773,466.071,426.967,466.417,428.095z"/>
<path d="M332.924,103.692c0.17-0.105,0.324-0.226,0.485-0.331c52.172-33.718,112.741-51.557,175.124-51.557
	c62.413,0,122.982,17.839,175.153,51.557c50.804,32.849,91.294,79.052,117.087,133.645c1.305,2.736,1.305,5.936,0,8.683
	C774.98,300.26,734.49,346.47,683.687,379.316c-52.171,33.719-112.74,51.569-175.153,51.569c-14.16,0-28.222-0.972-42.116-2.791
	c-0.346-1.128-0.819-2.321-1.453-3.578c-0.521-0.521-0.985-1.142-1.466-1.741c-1.334-5.698-2.7-11.266-4.594-16.336
	c16.311,2.694,32.896,4.112,49.63,4.112c58.485,0,115.245-16.704,164.122-48.313c46.257-29.899,83.399-71.631,107.638-120.896
	c-24.238-49.271-61.381-91.005-107.638-120.905C623.778,88.84,567.019,72.126,508.533,72.126c-57.627,0-113.57,16.269-161.972,47
	C341.543,114.703,337.016,109.505,332.924,103.692z"/>
<path d="M395.916,154.867c-2.131-2.843-4.734-4.406-7.555-5.188c27.655-36.182,71.223-59.58,120.172-59.58
	c83.414,0,151.255,67.85,151.255,151.245c0,83.385-67.841,151.234-151.255,151.234c-21.134,0-41.249-4.398-59.53-12.268
	c2.426-6.325,7.983-11.65,11.948-17.084c14.756,5.792,30.791,9.019,47.582,9.019c72.199,0,130.922-58.727,130.922-130.901
	c0-72.191-58.723-130.922-130.922-130.922c-47.905,0-89.822,25.922-112.626,64.442c-0.253-2.384-0.684-4.663-1.299-6.819
	C395.987,163.561,397.191,158.72,395.916,154.867z"/>
<path d="M392.909,180.067c-1.713-2.049,0.1-6.79,1.7-12.022c0.615,2.157,1.046,4.436,1.299,6.819
	C394.884,176.586,393.847,178.3,392.909,180.067z"/>
<path fill="#E41319" d="M508.533,110.422c72.199,0,130.922,58.73,130.922,130.922c0,72.175-58.723,130.901-130.922,130.901
	c-16.791,0-32.826-3.227-47.582-9.019c1.843-2.525,3.347-5.077,4.013-7.767c1.114-5.557,0.894-10.923-0.071-16.17
	c13.339,5.979,28.104,9.332,43.64,9.332c59.178,0,107.299-48.132,107.299-107.278c0-59.156-48.121-107.292-107.299-107.292
	c-39.693,0-74.388,21.694-92.938,53.831c-4.83-3.141-11.108-5.455-19.468-6.675c0.078-2.204-0.008-4.313-0.22-6.343
	C418.711,136.344,460.628,110.422,508.533,110.422z"/>
<path fill="#F48C6C" d="M396.127,181.207c-0.079-0.007-0.14-0.021-0.211-0.036c-1.512,0-2.435-0.416-3.007-1.104
	c0.938-1.768,1.975-3.481,2.999-5.203C396.119,176.894,396.205,179.003,396.127,181.207z"/>
<path fill="#3DD0F2" d="M430.259,208.568h-2.242c0.384-0.938,0.832-1.831,1.241-2.751
	C429.612,206.72,429.94,207.634,430.259,208.568z"/>
<path fill="#3DD0F2" d="M430.259,208.568c-0.319-0.934-0.646-1.849-1.001-2.751c0.321-0.708,0.699-1.385,1.035-2.088
	c0.335,1.588,0.649,3.2,0.949,4.839H430.259z"/>
<path fill="#3DD0F2" d="M446.216,301.875c1.827-1.307,3.538-2.721,5.112-4.274c0.75,4.003,1.97,7.976,3.409,11.943
	C451.732,307.17,448.88,304.618,446.216,301.875z"/>
<path fill="#3DD0F2" d="M461.677,263.387c-6.573,0-13.153-6.578-13.153-6.578c-0.841-1.08-1.625-2.176-2.366-3.28
	C449.982,257.737,454.982,261.151,461.677,263.387z"/>
<path fill="#808A93" d="M508.533,154.384c41.839,0,76.836,29.687,85.107,69.086h-34.273c-2.693,0-5.263,1.064-7.176,2.969
	l-28.813,28.814c-3.124-1.255-6.524-1.953-10.096-1.953c-14.937,0-27.105,12.153-27.105,27.105
	c0,14.939,12.169,27.103,27.105,27.103c14.956,0,27.11-12.163,27.11-27.103c0-3.942-0.854-7.672-2.372-11.051l25.563-25.554h31.84
	c-1.299,46.809-39.744,84.484-86.89,84.484c-20.308,0-38.987-7.021-53.797-18.741c-1.439-3.968-2.659-7.94-3.409-11.943
	c7.319-7.182,11.648-17.378,10.35-34.213c-6.695-2.236-11.695-5.65-15.519-9.858c-5.291-7.904-8.145-16.369-10.381-24.642h25.958
	c4.042,9.917,13.775,16.936,25.12,16.936c14.952,0,27.111-12.157,27.111-27.101c0-14.954-12.159-27.119-27.111-27.119
	c-11.36,0-21.09,7.018-25.12,16.964h-30.494c-0.3-1.64-0.613-3.251-0.949-4.839C444.361,174.59,474.094,154.384,508.533,154.384z"/>
<path d="M430.259,208.568h0.982c0.477,2.646,0.923,5.351,1.376,8.072C431.889,213.873,431.134,211.157,430.259,208.568z"/>
<path d="M461.735,208.568h-30.494c0.477,2.646,0.923,5.351,1.376,8.072c1.047,3.973,2.03,8.074,3.16,12.247h25.958
	c4.042,9.917,13.775,16.936,25.12,16.936c14.952,0,27.111-12.157,27.111-27.101c0-14.954-12.159-27.119-27.111-27.119
	C475.495,191.604,465.765,198.622,461.735,208.568z M480.081,218.723c0-3.731,3.034-6.782,6.773-6.782
	c3.748,0,6.771,3.051,6.771,6.782s-3.023,6.767-6.771,6.767C483.115,225.49,480.081,222.454,480.081,218.723z"/>
<path d="M415.595,187.882c0.601,0.388,1.151,0.809,1.708,1.225c5.565,2.397,9.964,5.449,11.491,8.506
	c0.563,1.975,1.051,4.022,1.499,6.116c14.069-29.139,43.801-49.345,78.241-49.345c41.839,0,76.836,29.687,85.107,69.086h-34.273
	c-2.693,0-5.263,1.064-7.176,2.969l-28.813,28.814c-3.124-1.255-6.524-1.953-10.096-1.953c-14.937,0-27.105,12.153-27.105,27.105
	c0,14.939,12.169,27.103,27.105,27.103c14.956,0,27.11-12.163,27.11-27.103c0-3.942-0.854-7.672-2.372-11.051l25.563-25.554h31.84
	c-1.299,46.809-39.744,84.484-86.89,84.484c-20.308,0-38.987-7.021-53.797-18.741c3.534,9.756,8.282,19.514,10.157,29.746
	c13.339,5.979,28.104,9.332,43.64,9.332c59.178,0,107.299-48.132,107.299-107.278c0-59.156-48.121-107.292-107.299-107.292
	C468.84,134.052,434.146,155.746,415.595,187.882z M520.063,280.406c0,3.727-3.038,6.769-6.78,6.769
	c-3.719,0-6.777-3.042-6.777-6.769c0-3.737,3.059-6.784,6.777-6.784C517.024,273.622,520.063,276.669,520.063,280.406z"/>
<path d="M428.793,197.613c0.563,1.975,1.051,4.022,1.499,6.116c-0.336,0.703-0.714,1.379-1.035,2.088
	c-2.53-6.567-6.066-12.315-11.955-16.709C422.868,191.505,427.267,194.556,428.793,197.613z"/>
<path fill="#183651" d="M500.677,161.988l0.064-0.151c0.24,0.151,0.479,0.307,0.726,0.458L500.677,161.988z"/>
<path fill="#183651" d="M515.409,167.721c0.074,0.041,0.147,0.098,0.224,0.14c-5.552-0.5-10.07-2.983-14.166-5.564L515.409,167.721z
	"/>
<g>
	<path d="M466.637,435.553c-1.171-4.236-2.16-8.537-3.145-12.777c0.486,0.596,0.95,1.22,1.472,1.741
		C467.197,428.98,467.566,432.585,466.637,435.553z"/>
	<g>
		<path d="M395.916,184.461c0.106-1.107,0.174-2.186,0.211-3.247c9.418,1.368,16.189,4.14,21.227,7.914
			C410.94,186.359,402.961,184.461,395.916,184.461z"/>
		<path d="M432.588,216.458c3.137,11.92,5.588,25.168,13.62,37.124C437.368,243.897,434.84,229.974,432.588,216.458z"/>
		<path d="M428.793,197.613c1.665,5.828,2.701,12.288,3.795,18.845c-2.875-10.909-6.363-20.686-15.235-27.33
			C422.903,191.522,427.268,194.567,428.793,197.613z"/>
		<path d="M461.677,263.387c-6.573,0-13.153-6.578-13.153-6.578c-0.824-1.063-1.584-2.141-2.316-3.227
			C450.029,257.766,455.011,261.166,461.677,263.387z"/>
		<g>
			<path d="M396.127,181.215c-0.079-0.015-0.14-0.029-0.211-0.043c-6.034,0-3.471-6.137-1.314-13.163
				C395.738,172.022,396.295,176.396,396.127,181.215z"/>
			<g>
				<path d="M463.492,422.775c-5.587-6.949-8.65-18.509-11.68-24.561c-1.837-2.758-2.954-5.317-3.53-7.731
					C457.393,397.796,460.514,409.954,463.492,422.775z"/>
				<path d="M395.916,154.867c1.275,3.838,0.064,8.67-1.314,13.142c-2.086-7.357-6.116-13.516-11.171-18.964
					C388.128,149.006,392.58,150.426,395.916,154.867z"/>
				<g>
					<path d="M451.329,297.605c-2.059-10.954-0.519-22.142,10.348-34.218C462.976,280.224,458.646,290.419,451.329,297.605z"/>
					<g>
						<path d="M451.329,297.605c-11.258,11.066-29.61,15.006-45.553,24.97c-9.86,3.291-19.729,23.022-13.155,36.173
							c16.442,23.022,32.886,19.737,52.619,29.599c1.085,0.653,2.093,1.373,3.043,2.137c-3.549-14.815,13.853-23.708,16.682-35.023
							C469.13,334.659,454.874,316.481,451.329,297.605z M442.044,372.079c-15.084,6.116-31.218-0.712-37.328-15.794
							c-6.114-15.081,1.467-31.52,15.803-37.327c14.316-5.806,31.205,0.715,37.321,15.801
							C463.95,349.838,457.127,365.97,442.044,372.079z"/>
						<g>
							<path d="M303.61,411.292c6.416,15.833,24.629,23.475,40.387,17.087c16.506-6.69,23.774-23.872,17.085-40.381
								c-6.418-15.834-24.624-23.476-40.383-17.088C304.941,377.292,297.266,395.428,303.61,411.292z M318.02,405.454
								c-3.196-7.883,0.648-16.946,8.528-20.142c8.544-3.465,16.951,0.645,20.137,8.521c3.196,7.876-0.648,16.941-8.525,20.138
								C330.278,417.16,321.208,413.33,318.02,405.454z"/>
							<path d="M344.486,494.351c6.417,15.83,24.631,23.476,40.382,17.083c15.827-6.408,23.481-24.624,17.097-40.382
								c-2.586-6.377-6.988-11.405-12.427-14.707l2.843,1.207l5.996-14.305l-14.234-6.028l-6.025,14.23l2.743,1.163
								c-6.201-1.51-12.907-1.234-19.207,1.317C345.826,460.348,338.15,478.482,344.486,494.351z M367.497,468.342
								c7.872-3.196,16.941,0.644,20.129,8.521c3.196,7.881-0.644,16.946-8.522,20.138c-7.948,3.226-17.019-0.615-20.139-8.519
								C355.777,480.604,359.616,471.535,367.497,468.342z"/>
							<path d="M234.467,101.11c-3.189-7.879-11.512-12.02-20.139-8.528c-4.634,1.88-7.814,5.813-9.042,10.327
								c-4.494-2.85-8.91-5.776-13.24-8.805c3.167-6.995,8.873-12.856,16.52-15.954c15.757-6.383,33.963,1.256,40.383,17.093
								c2.771,6.827,2.998,14.064,1.101,20.603l1.924-4.532l14.185,6.126l-5.938,14.034c-4.754-1.968-9.465-4.066-14.136-6.246
								l1.292-3.056c-0.551,0.973-1.23,1.866-1.885,2.776c-4.845-2.275-9.646-4.659-14.396-7.149
								C235.308,113.536,236.85,106.993,234.467,101.11z"/>
							<path d="M205.286,102.909c-0.863,3.154-0.792,6.574,0.521,9.819c3.195,7.876,12.259,11.709,20.139,8.514
								c1.989-0.81,3.724-1.997,5.149-3.442c4.749,2.49,9.551,4.874,14.396,7.149c-3.271,4.568-7.807,8.313-13.634,10.677
								c-15.75,6.384-33.965-1.264-40.383-17.092c-3.3-8.148-2.827-16.943,0.572-24.43
								C196.376,97.132,200.792,100.059,205.286,102.909z"/>
							<path d="M383.431,149.045c-0.467,0.003-0.938,0.003-1.412,0.038c-7.447-11.562-22.114-16.086-34.791-10.947
								c-6.68,2.705-11.864,7.735-14.904,13.847c-9.613-1.496-19.236-3.528-28.813-6.01l4.358-10.32l12.125,5.136
								c3.568-5.639,7.712-9.854,13.895-13.141L316.333,82.17c-13.697,1.351-27.347-5.6-32.576-18.508
								c-6.382-15.752,1.256-33.964,17.094-40.384c0.096-0.039,0.195-0.063,0.295-0.099c1.198,4.842,2.47,9.713,3.815,14.573
								c-6.46,3.829-9.396,11.921-6.496,19.08c2.59,6.398,9.05,10.052,15.616,9.517c8.078,21.698,18.666,41.081,33.547,53.7
								l0.968,2.503c0.557-0.105,1.114-0.165,1.674-0.253C360.75,130.963,373.901,138.749,383.431,149.045z"/>
							<path d="M448.712,447.312c-3.021,7.174-3.306,15.396-0.174,23.125c6.414,15.829,24.625,23.477,40.374,17.086
								c15.836-6.412,23.479-24.624,17.096-40.379c-5.535-13.657-19.485-21.366-33.555-18.987l-18.307-45.172
								c17.898-11.449,25.543-33.765,17.395-53.869c-3.5-8.63-9.623-15.321-16.515-20.043l13.968-31.52
								c12.225,3.435,25.432,3.063,38.341-2.17c12.898-5.227,22.646-14.161,29.029-25.129l1.822,0.766
								c1.968-5.602,3.942-10.267,5.909-15.336l-1.375-0.582c3.428-12.22,3.052-25.437-2.176-38.341
								c-5.197-12.816-14.045-22.517-24.91-28.9c-5.552-0.5-10.07-2.983-14.166-5.564l-0.79-0.308
								c-12.222-3.432-25.441-3.052-38.336,2.177c-12.91,5.233-22.656,14.156-29.038,25.132l-33.326-14.097
								c1.742-8.215,1.405-17.258-2.102-25.892c-7.885-19.472-27.988-30.085-47.604-27.009
								c10.479,8.663,23.629,16.449,33.159,26.745c4.698-0.039,9.149,1.381,12.485,5.822c1.275,3.838,0.064,8.67-1.314,13.142
								c1.136,4.014,1.693,8.387,1.525,13.206c9.418,1.368,16.189,4.14,21.227,7.914c5.55,2.394,9.915,5.438,11.44,8.485
								c1.665,5.828,2.701,12.288,3.795,18.845c3.137,11.92,5.588,25.168,13.62,37.124c3.821,4.184,8.803,7.583,15.469,9.805
								c1.299,16.837-3.031,27.032-10.348,34.218c3.544,18.876,17.801,37.054,13.635,57.854
								c-2.829,11.315-20.23,20.208-16.682,35.023c9.11,7.313,12.231,19.471,15.21,32.292c0.486,0.596,0.95,1.22,1.472,1.741
								c2.233,4.464,2.603,8.068,1.673,11.036c0.5,1.822,1.023,3.631,1.62,5.41c-0.596-1.779-1.12-3.588-1.62-5.41
								C464.711,441.688,457.185,445.051,448.712,447.312z M444.157,235.042c-9.312-22.968,2.103-48.464,24.321-57.465
								c22.208-9.003,48.454,2.099,57.46,24.318c9.304,22.955-2.11,48.464-24.32,57.465
								C478.661,268.664,453.152,257.243,444.157,235.042z M472.09,444.29c7.878-3.191,16.95,0.641,20.146,8.521
								c3.187,7.878-0.65,16.95-8.528,20.146c-7.872,3.192-16.948-0.65-20.137-8.53C460.377,456.549,464.218,447.48,472.09,444.29z"
								/>
							<path d="M216.331,222.987c6.42,15.825,24.633,23.479,40.39,17.088c13.657-5.534,21.362-19.491,19.258-32.882l44.863-19.053
								c11.171,17.223,33.49,24.866,53.6,16.715c8.626-3.499,15.321-9.617,20.034-16.509l32.271,13.656
								c-3.435,12.22-3.06,25.428,2.173,38.34c5.226,12.905,14.156,22.65,25.132,29.034l-14.105,33.322
								c-8.212-1.738-17.242-1.394-25.87,2.102c-22.964,9.305-33.321,35.257-24.32,57.464c3.583,8.857,9.571,15.865,16.97,20.552
								l-5.002,11.81l14.243,6.022l5.044-11.917c5.961,1.341,12.275,1.402,18.653,0.123l18.613,45.925
								c-4.301,3.39-7.542,7.727-9.566,12.533c8.473-2.261,15.999-5.624,17.925-11.759c-1.171-4.236-2.16-8.537-3.145-12.777
								c-5.587-6.949-8.65-18.509-11.68-24.561c-1.837-2.758-2.954-5.317-3.53-7.731c-0.95-0.764-1.958-1.483-3.043-2.137
								c-19.732-9.861-36.177-6.576-52.619-29.599c-6.573-13.15,3.295-32.882,13.155-36.173
								c15.943-9.964,34.295-13.903,45.553-24.97c-2.059-10.954-0.519-22.142,10.348-34.218c-6.573,0-13.153-6.578-13.153-6.578
								c-0.824-1.063-1.584-2.141-2.316-3.227c-8.84-9.686-11.368-23.609-13.62-37.124c-2.875-10.909-6.363-20.686-15.235-27.33
								c-6.413-2.769-14.393-4.667-21.438-4.667c0.106-1.107,0.174-2.186,0.211-3.247c-0.079-0.015-0.14-0.029-0.211-0.043
								c-6.034,0-3.471-6.137-1.314-13.163c-2.086-7.357-6.116-13.516-11.171-18.964c-0.467,0.003-0.938,0.003-1.412,0.038
								c0.967,1.503,1.827,3.111,2.532,4.847c6.114,15.081-1.466,31.523-15.787,37.329c-15.086,6.115-31.227-0.72-37.336-15.796
								c-3.264-8.057-2.594-16.479,0.896-23.479c-9.613-1.496-19.236-3.528-28.813-6.01l-1.623,3.813l12.124,5.131
								c-0.81,6.179-1.316,13.113,0.247,19.123l-44.868,19.052c-7.807-11.071-23.058-15.73-35.96-10.495
								C217.587,189.015,209.92,207.147,216.331,222.987z M239.087,196.985c7.878-3.188,16.943,0.643,20.139,8.522
								c3.187,7.876-0.648,16.947-8.522,20.135c-7.878,3.196-16.95-0.634-20.146-8.521
								C227.363,209.246,231.2,200.185,239.087,196.985z"/>
							<path d="M314.083,66.35c1.518-0.12,3.043-0.399,4.523-0.999c7.878-3.195,11.708-12.256,8.521-20.135
								c-3.195-7.887-12.274-11.724-20.139-8.536c-0.728,0.297-1.378,0.686-2.026,1.073c-1.345-4.86-2.617-9.731-3.815-14.573
								c15.681-6.178,33.71,1.447,40.088,17.19c5.537,13.649,0.578,28.151-10.192,36.716l16.588,42.964
								C332.748,107.43,322.161,88.047,314.083,66.35z"/>
							<polygon points="410.172,414.833 404.145,429.066 389.904,423.043 395.936,408.801 							"/>
							<path d="M280.677,123.358l14.247,6.027l-5.346,12.638c-4.929-1.525-9.84-3.141-14.713-4.896L280.677,123.358z"/>
						</g>
					</g>
				</g>
			</g>
		</g>
	</g>
</g>
</svg>
