<?xml version="1.0" encoding="utf-8"?>
<!-- Generator: Adobe Illustrator 16.0.0, SVG Export Plug-In . SVG Version: 6.00 Build 0)  -->
<!DOCTYPE svg PUBLIC "-//W3C//DTD SVG 1.1//EN" "http://www.w3.org/Graphics/SVG/1.1/DTD/svg11.dtd">
<svg version="1.1" id="Calque_1" xmlns="http://www.w3.org/2000/svg" xmlns:xlink="http://www.w3.org/1999/xlink" x="0px" y="0px"
	 width="960px" height="560px" viewBox="0 0 960 560" enable-background="new 0 0 960 560" xml:space="preserve">
<path d="M482.764,392.139c-54.147,0-106.7-15.474-151.967-44.739c-42.839-27.685-77.234-66.336-99.68-111.954
	c22.446-45.62,56.841-84.271,99.68-111.958c45.267-29.266,97.82-44.739,151.967-44.739c15.141,0,30.143,1.25,44.903,3.633
	c1.285-6.985,4.508-12.678,8.86-17.616c-17.631-3.207-35.609-4.84-53.764-4.84c-57.786,0-113.873,16.523-162.184,47.742
	c-47.047,30.421-84.542,73.215-108.423,123.766c-1.214,2.534-1.214,5.491,0,8.038c23.881,50.537,61.376,93.333,108.423,123.745
	c48.311,31.226,104.398,47.751,162.184,47.751c15.652,0,31.165-1.252,46.444-3.643c-2.17-6.04-4.478-12.026-6.794-17.987
	C509.35,391.192,496.107,392.139,482.764,392.139z"/>
<path d="M482.764,356.666c-66.846,0-121.226-54.378-121.226-121.221c0-66.848,54.38-121.239,121.226-121.239
	c32.7,0,62.392,13.037,84.22,34.163c4.778-3.792,9.946-7.516,15.453-11.191c-25.416-25.776-60.7-41.789-99.673-41.789
	c-77.234,0-140.056,62.83-140.056,140.056c0,77.219,62.822,140.054,140.056,140.054c11.323,0,22.32-1.385,32.869-3.935
	c-2.199-5.976-4.223-11.953-5.97-17.943C501.004,355.593,492.01,356.666,482.764,356.666z"/>
<path fill="#808A93" d="M482.764,334.791c-54.79,0-99.342-44.569-99.342-99.346c0-54.779,44.552-99.348,99.342-99.348
	c26.265,0,50.106,10.308,67.888,27.009c4.869-5.071,10.313-9.968,16.332-14.737c-21.828-21.126-51.52-34.163-84.22-34.163
	c-66.846,0-121.226,54.391-121.226,121.239c0,66.843,54.38,121.221,121.226,121.221c9.246,0,18.24-1.073,26.899-3.045
	c-2.067-7.102-3.722-14.229-4.688-21.423C497.822,333.841,490.406,334.791,482.764,334.791z"/>
<path fill="#E41319" d="M524.021,205.091h37.109c-5.073-11.166-12.72-21.135-22.222-29.394
	c-6.701,8.652-11.943,17.889-15.675,27.969C523.491,204.145,523.795,204.596,524.021,205.091z"/>
<path fill="#E41319" d="M521.798,272.632c-2.094-14.659-2.654-27.805-1.821-39.822c-4.486,4.201-10.508,6.79-17.124,6.79
	c-13.846,0-25.104-11.262-25.104-25.103c0-13.846,11.258-25.112,25.104-25.112c9.992,0,18.566,5.899,22.599,14.374
	c3.137-9.432,7.548-18.075,13.185-26.17c-14.489-14.007-34.174-22.669-55.872-22.669c-38.731,0-71.145,27.492-78.8,63.975h31.735
	c2.495,0,4.886,0.984,6.657,2.755l26.665,26.678c2.901-1.162,6.059-1.812,9.354-1.812c13.837,0,25.101,11.256,25.101,25.103
	c0,13.833-11.264,25.1-25.101,25.1c-13.844,0-25.108-11.268-25.108-25.1c0-3.653,0.794-7.102,2.202-10.234l-23.669-23.66h-29.493
	c1.203,43.343,36.819,78.24,80.458,78.24c7.44,0,14.615-1.097,21.459-2.996c0.268-4.67,0.8-9.374,1.856-14.141
	C506.079,293.588,521.798,277.871,521.798,272.632z"/>
<path fill="#E41319" d="M524.658,223.918c-1.568,3.512-3.961,6.638-6.957,9.194c-0.945,12.43-0.311,26.023,2.064,41.184
	c0,5.417-17.818,21.671-17.818,27.092c-1.199,4.929-1.803,9.792-2.107,14.624c38.544-9.748,66.946-41.961,66.946-80.173
	c0-4.054-0.319-8.023-0.934-11.921H524.658z"/>
<path d="M597.313,120.915c-2.113-2.114-5.521-2.114-7.628,0l-11.6,11.581c-6.315-5.866-13.188-11.141-20.518-15.771l8.188-14.178
	c1.493-2.591,0.609-5.888-1.982-7.378c-2.578-1.495-5.884-0.622-7.371,1.975l-8.171,14.158c-7.6-4.017-15.586-7.384-23.92-9.964
	l3.243-12.084h-0.517c0-2.817,0.301-5.426,0.833-7.895c-0.701-1.119-1.783-2.011-3.161-2.378c-2.864-0.756-5.838,0.942-6.615,3.818
	l-4.222,15.773c-8.311-1.882-16.896-3.041-25.69-3.371V78.862c0-2.983-2.409-5.4-5.398-5.4c-2.983,0-5.392,2.417-5.392,5.4V95.2
	c-8.799,0.331-17.376,1.481-25.691,3.371l-4.221-15.773c-0.778-2.876-3.724-4.586-6.616-3.818c-2.881,0.772-4.596,3.735-3.828,6.623
	l4.229,15.735c-8.336,2.58-16.322,5.947-23.922,9.964l-8.171-14.158c-1.494-2.597-4.804-3.47-7.371-1.975
	c-2.589,1.49-3.475,4.794-1.982,7.378l8.188,14.178c-7.333,4.63-14.203,9.905-20.532,15.771l-11.594-11.581
	c-2.105-2.114-5.517-2.114-7.627,0c-2.116,2.106-2.116,5.522,0,7.631l11.586,11.587c-5.862,6.333-11.134,13.196-15.769,20.532
	l-14.184-8.184c-2.579-1.507-5.884-0.611-7.373,1.979c-1.487,2.584-0.609,5.884,1.971,7.368l14.162,8.171
	c-3.703,7.009-6.831,14.345-9.322,21.977c-0.011,0.03-0.041,0.052-0.056,0.096c-0.009,0.03,0,0.056-0.009,0.089
	c-0.191,0.586-0.406,1.173-0.594,1.756l-15.734-4.213c-2.864-0.758-5.838,0.936-6.61,3.82c-0.772,2.872,0.936,5.834,3.816,6.612
	l15.775,4.225c-1.89,8.314-3.044,16.892-3.378,25.691h-16.335c-2.978,0-5.394,2.412-5.394,5.398c0,2.977,2.417,5.398,5.394,5.398
	h16.335c0.334,8.795,1.489,17.371,3.378,25.681l-15.771,4.234c-2.874,0.767-4.589,3.729-3.82,6.606
	c0.642,2.421,2.823,4.006,5.212,4.006c0.468,0,0.936-0.056,1.407-0.182l15.734-4.218c2.589,8.323,5.949,16.315,9.972,23.913
	l-14.162,8.171c-2.58,1.485-3.466,4.791-1.971,7.381c1.004,1.726,2.809,2.695,4.682,2.695c0.918,0,1.841-0.23,2.691-0.721
	l14.184-8.193c4.635,7.34,9.907,14.204,15.774,20.538l-11.592,11.579c-2.109,2.114-2.109,5.524,0,7.641
	c1.052,1.054,2.439,1.581,3.82,1.581c1.377,0,2.768-0.527,3.817-1.581l11.588-11.591c3.965,3.683,8.162,7.143,12.541,10.345
	c0.104,0.084,0.148,0.203,0.262,0.288c0.154,0.107,0.321,0.148,0.476,0.235c2.37,1.714,4.789,3.351,7.262,4.906l-8.188,14.179
	c-1.487,2.595-0.608,5.888,1.976,7.377c0.844,0.491,1.78,0.728,2.697,0.728c1.868,0,3.679-0.962,4.682-2.703l8.181-14.155
	c7.588,4.021,15.576,7.382,23.911,9.968l-4.223,15.741c-0.772,2.877,0.943,5.84,3.82,6.616c0.468,0.118,0.939,0.178,1.405,0.178
	c2.378,0,4.564-1.585,5.207-3.998l4.229-15.771c8.314,1.89,16.894,3.041,25.685,3.373v16.337c0,2.981,2.415,5.398,5.402,5.398
	c2.982,0,5.397-2.417,5.397-5.398v-16.337c8.791-0.332,17.377-1.483,25.691-3.373l4.223,15.771c0.643,2.413,2.816,3.998,5.213,3.998
	c0.05,0,0.102-0.019,0.151-0.019c-3.959-10.202-7.956-20.304-11.317-30.423c-9.439,2.2-19.273,3.381-29.374,3.381
	c-26.483,0-51.149-8.012-71.693-21.709l1.99-2.736c-2.576-2.579-5.156-5.159-7.737-7.735l-2.978,4.103
	c-29.921-23.763-49.158-60.417-49.158-101.503c0-12.084,1.691-23.763,4.791-34.88l0.81,0.26c0.308-4.103,1.258-7.229,4.099-10.013
	l-1.585-0.516c17.776-47.651,62.828-82.111,116.069-84.307v2.027c3.596,0,7.195,0,10.791,0v-2.027
	c33.273,1.372,63.344,15.346,85.56,37.261c7.394-5.398,15.502-10.699,24.412-15.971C599.277,125.23,599.053,122.65,597.313,120.915z
	"/>
<g>
	<path d="M525.635,419.734c-4.091,2.809-6.617,7.607-6.166,12.868c0.688,7.814,7.596,13.588,15.44,12.894
		c1.29-0.111,2.489-0.438,3.647-0.865c-6.748-25.179-18.121-49.136-25.89-73.217L525.635,419.734z"/>
	<path d="M544.147,48.801c5.675-0.908,9.86-5.724,9.97-11.409c-12.949,9.359-23.634,20.23-23.697,38.217l5.747,0.023l-5.747-0.023
		c0.063-17.986,10.748-28.857,23.697-38.217c0.012-0.42,0.049-0.833,0.012-1.264c-0.579-6.514-6.321-11.324-12.86-10.743
		c-6.54,0.566-11.37,6.305-10.794,12.8c0.299,3.374,1.995,6.288,4.472,8.222l-28.502,104.27c3.033,1.058,5.981,2.275,8.838,3.636
		L544.147,48.801z"/>
	<path d="M704.265,193.569c-1.296-14.744-14.358-25.653-29.166-24.373c-13.789,1.208-24.23,12.576-24.548,26.03l-85.756,15.617
		c-3.954-13.716-11.147-25.915-20.59-35.932l51.893-45.154c2.869,2.872,6.92,4.555,11.289,4.182
		c7.847-0.687,13.651-7.559,12.969-15.372c-0.698-7.816-7.609-13.582-15.446-12.899c-7.756,0.672-13.49,7.429-12.951,15.128
		l-54.612,47.539c-5.152-4.418-10.822-8.205-16.875-11.344c7.989,4.479,15.149,10.119,21.33,16.625
		c14.828-21.683,37.788-39.678,68.953-57.625c-31.165,17.947-54.125,35.941-68.953,57.625
		c23.954,25.207,33.109,63.309,17.806,96.563c-10.491,22.638-30.25,42.179-55.172,49.164c-0.715,10.613,0.265,21.037,2.376,31.357
		l5.628,20.994c7.772,24.078,19.147,48.041,25.898,73.222c5.883-2.157,9.862-7.973,9.295-14.503
		c-0.612-6.999-6.25-12.337-13.063-12.857l-26.469-98.685c18.815-6.363,34.629-18.708,45.289-34.666l20.124,12.529
		c-1.338,3.497-2.04,7.288-1.678,11.275c1.216,13.878,13.519,24.153,27.434,22.927c13.95-1.212,24.245-13.454,23.02-27.337
		c-1.214-13.878-13.495-24.154-27.454-22.935c-6.497,0.566-12.168,3.61-16.287,8.047l-20.33-12.662
		c7.54-14.418,11.261-31.035,9.738-48.425c-0.223-2.563-0.618-5.047-1.034-7.54l85.092-15.509
		c3.898,11.403,15.201,19.144,27.77,18.043C694.603,221.33,705.557,208.321,704.265,193.569z"/>
</g>
<path d="M550.651,163.106c-4.468,4.661-8.509,9.46-12.016,14.483c7.993,7.729,14.426,17.056,18.693,27.502h-31.217
	c-0.189-0.464-0.446-0.885-0.661-1.333c-2.963,8.902-4.743,18.551-5.475,29.051c2.642-2.473,4.754-5.495,6.136-8.892h36.336
	c0.544,3.77,0.824,7.607,0.824,11.527c0,36.949-25.054,68.102-59.05,77.523c-0.373,6.482-0.103,12.887,0.752,19.229
	c44.11-10.126,77.138-49.62,77.138-96.753C582.112,206.924,569.967,181.242,550.651,163.106z"/>
<path d="M504.453,312.969c-6.857,1.899-14.047,2.996-21.5,2.996c-43.723,0-79.407-34.897-80.612-78.24h29.548l23.716,23.66
	c-1.411,3.132-2.207,6.581-2.207,10.234c0,13.833,11.286,25.1,25.156,25.1c13.863,0,25.149-11.268,25.149-25.1
	c0-13.846-11.286-25.103-25.149-25.103c-3.301,0-6.464,0.65-9.371,1.812l-26.717-26.678c-1.775-1.771-4.169-2.755-6.67-2.755
	h-31.794c7.67-36.483,40.146-63.975,78.951-63.975c21.739,0,41.46,8.662,55.979,22.669c3.512-5.023,7.561-9.822,12.037-14.483
	c-17.814-16.701-41.703-27.009-68.016-27.009c-54.894,0-99.531,44.569-99.531,99.348c0,54.776,44.638,99.346,99.531,99.346
	c7.655,0,15.086-0.95,22.252-2.593C504.349,325.855,504.078,319.451,504.453,312.969z M478.554,265.341
	c3.465,0,6.286,2.814,6.286,6.278c0,3.447-2.82,6.271-6.286,6.271c-3.475,0-6.289-2.824-6.289-6.271
	C472.265,268.155,475.079,265.341,478.554,265.341z"/>
<path d="M502.937,189.385c-13.893,0-25.188,11.266-25.188,25.112c0,13.84,11.295,25.103,25.188,25.103
	c6.638,0,12.68-2.589,17.182-6.79c0.733-10.5,2.519-20.148,5.492-29.051C521.564,195.285,512.962,189.385,502.937,189.385z
	 M502.937,220.77c-3.478,0-6.299-2.814-6.299-6.272c0-3.46,2.821-6.278,6.299-6.278c3.473,0,6.302,2.818,6.302,6.278
	C509.238,217.956,506.409,220.77,502.937,220.77z"/>
</svg>
