<?xml version="1.0" encoding="utf-8"?>
<!-- Generator: Adobe Illustrator 16.0.0, SVG Export Plug-In . SVG Version: 6.00 Build 0)  -->
<!DOCTYPE svg PUBLIC "-//W3C//DTD SVG 1.1//EN" "http://www.w3.org/Graphics/SVG/1.1/DTD/svg11.dtd">
<svg version="1.1" xmlns="http://www.w3.org/2000/svg" xmlns:xlink="http://www.w3.org/1999/xlink" x="0px" y="0px"
	 width="686.896px" height="560px" viewBox="0 0 686.896 560" enable-background="new 0 0 686.896 560" xml:space="preserve">
<g id="CarlHauser">
	<path fill="#808A93" d="M389.699,411.688c-71.908,0-130.382-58.496-130.382-130.387c0-71.896,58.474-130.39,130.382-130.39
		c34.469,0,65.763,13.529,89.099,35.448c6.391-6.654,13.537-13.081,21.434-19.341c-28.647-27.727-67.615-44.837-110.532-44.837
		c-87.732,0-159.102,71.384-159.102,159.121c0,87.728,71.37,159.094,159.102,159.094c12.136,0,23.938-1.406,35.304-3.994
		c-2.715-9.322-4.885-18.677-6.153-28.117C409.461,410.438,399.729,411.688,389.699,411.688z"/>
	<path fill="#E41319" d="M498.748,266h-54.065c-2.059,5-5.199,8.799-9.13,12.152c-0.056,0.717-0.083,1.495-0.129,2.217
		c-5.438,3.976-12.125,6.362-19.359,6.362c-18.173,0-32.947-14.769-32.947-32.934c0-18.175,14.774-32.953,32.947-32.953
		c11.838,0,22.146,6.323,27.934,15.733c-0.398,1-0.807,2.268-1.184,3.282c0.335,0.628,0.736,1.142,1.032,2.142h48.704
		c-6.657-15-16.692-28.007-29.166-38.848c-0.423,0.547-0.82,0.97-1.235,1.52c-18.932-17.893-44.407-28.781-72.45-28.781
		c-50.833,0-93.374,36.109-103.421,84.109h41.649c3.275,0,6.414,1.08,8.738,3.405l34.996,34.908
		c3.808-1.524,7.952-2.431,12.277-2.431c18.157,0,32.941,14.748,32.941,32.92c0,18.155-14.784,32.929-32.941,32.929
		c-18.171,0-32.953-14.793-32.953-32.949c0-4.795,1.041-9.468,2.888-13.58L322.809,284h-38.708
		c1.579,57,48.322,102.832,105.597,102.832c7.771,0,15.314-0.852,22.6-2.479c-0.07,0.87-0.135,1.779-0.188,2.65
		c50.586-12.794,87.863-55.14,87.863-105.29C499.973,276.394,499.555,271,498.748,266z"/>
	<path d="M680.406,226.341c-1.7-19.351-18.845-33.67-38.278-31.989c-18.098,1.587-31.801,16.505-32.217,34.163l-94.781,17.261
		c-5.986-20.993-17.13-39.832-31.947-55.099l54.945-47.811c-0.017-0.03-0.029-0.061-0.045-0.091l0.088-0.141
		c4.716,2.482,10.445,3.016,15.781,0.848c9.563-3.917,14.166-14.79,10.265-24.316c-3.916-9.525-14.824-14.063-24.381-10.156
		c-8.96,3.658-13.507,13.453-10.843,22.498c-0.016,0.01-0.029,0.024-0.046,0.035c0.067,0.106,0.141,0.208,0.208,0.313
		l-14.352,14.331c-8.287-7.699-17.307-14.625-26.928-20.7l10.747-18.608c1.958-3.399,0.799-7.728-2.604-9.684
		c-3.384-1.96-7.723-0.814-9.673,2.592l-10.726,18.58c-7.958-4.204-16.244-7.857-24.821-10.886l19.462-71.14
		c7.447-1.192,12.941-7.513,13.085-14.974c0.016-0.552,0.063-1.094,0.016-1.66c-0.761-8.548-8.296-14.862-16.879-14.1
		c-8.584,0.743-14.922,8.275-14.168,16.8c0.394,4.428,2.619,8.251,5.869,10.79l-6.202,22.686
		c-20.479-3.274-41.292-4.942-62.283-4.942c-75.841,0-149.453,21.685-212.859,62.659c-61.747,39.924-110.956,96.088-142.299,162.434
		c-1.594,3.326-1.594,7.206,0,10.55c31.343,66.325,80.552,122.495,142.299,162.408c63.406,40.981,137.018,62.67,212.859,62.67
		c17.571,0,35.006-1.21,52.23-3.521l4.035,15.031c-5.37,3.685-8.686,9.982-8.094,16.889c0.903,10.257,9.97,17.832,20.264,16.922
		c1.562-0.136,3.02-0.517,4.429-1.014c0.022,0.085,0.049,0.17,0.071,0.255c7.723-2.831,12.944-10.464,12.2-19.034
		c-0.806-9.186-8.204-16.19-17.144-16.873l-30.639-114.23c28.922-8.67,53.667-27.082,70.345-51.443l11.405,7.102
		c-1.755,4.59-2.677,9.564-2.201,14.798c1.596,18.213,17.743,31.701,36.005,30.091c18.309-1.592,31.821-17.659,30.211-35.88
		c-1.593-18.212-17.71-31.7-36.031-30.098c-8.527,0.741-15.97,4.737-21.377,10.56l-11.496-7.16
		c10.294-18.619,16.175-40.002,16.175-62.753c0-7.991-0.733-15.81-2.122-23.402l93.864-17.108
		c5.115,14.966,19.951,25.125,36.448,23.682C667.725,262.773,682.101,245.7,680.406,226.341z M495.982,163.064l-21.706,18.896
		c-11.14-9.447-23.864-17.079-37.722-22.413l7.591-27.744C463.437,138.865,480.989,149.566,495.982,163.064z M437.141,78.751
		c-0.459,0.654-0.852,1.392-1.072,2.208l-5.41,20.701c-10.909-2.471-22.59-3.988-33.59-4.423V75.792
		c0-0.025-0.133-0.049-0.133-0.075C410.478,75.983,423.828,77.02,437.141,78.751z M382.864,75.714c0,0.027,0.205,0.052,0.205,0.079
		v21.444c-12,0.435-23.018,1.943-33.93,4.423l-5.715-20.701c-0.227-0.841-0.584-1.6-1.062-2.27
		C355.691,76.971,369.313,75.97,382.864,75.714z M329.841,482.086c-49.605-8.131-97.051-26.35-139.592-53.853
		c-56.224-36.335-101.366-87.063-130.825-146.933c29.459-59.876,74.601-110.603,130.825-146.939
		c42.537-27.502,89.978-45.718,139.578-53.849c-0.441,1.286-0.519,2.713-0.143,4.125l5.55,20.653
		c-10.942,3.386-21.422,7.806-31.396,13.075l-10.726-18.58c-1.961-3.407-6.304-4.553-9.674-2.592
		c-3.397,1.957-4.561,6.293-2.602,9.684l10.747,18.608c-9.623,6.075-18.639,13.001-26.947,20.7l-15.217-15.201
		c-2.762-2.774-7.24-2.774-10.01,0c-2.777,2.764-2.777,7.247,0,10.016l15.207,15.205c-7.693,8.314-14.612,17.321-20.696,26.949
		l-18.615-10.743c-3.385-1.977-7.724-0.8-9.677,2.599c-1.952,3.391-0.799,7.722,2.587,9.669l18.587,10.724
		c-4.86,9.199-8.966,18.827-12.235,28.842c-0.015,0.04-0.053,0.068-0.073,0.127c-0.013,0.038,0,0.074-0.013,0.118
		c-0.25,0.767-0.534,1.54-0.779,2.304l-20.649-5.533c-3.76-0.992-7.663,1.229-8.676,5.016c-1.014,3.769,1.227,7.658,5.009,8.678
		l20.704,5.436c-2.48,10.912-3.996,22.607-4.435,33.607h-21.438c-3.908,0-7.081,3.081-7.081,7.004c0,3.908,3.173,6.996,7.081,6.996
		h21.438c0.439,12,1.954,22.994,4.435,33.902l-20.7,5.653c-3.771,1.006-6.021,4.944-5.013,8.718
		c0.843,3.178,3.706,5.284,6.841,5.284c0.614,0,1.228-0.063,1.846-0.228l20.65-5.53c3.398,10.925,7.809,21.416,13.088,31.388
		l-18.587,10.727c-3.386,1.948-4.548,6.287-2.587,9.687c1.318,2.266,3.687,3.538,6.145,3.538c1.206,0,2.417-0.302,3.533-0.944
		l18.615-10.755c6.083,9.635,13.003,18.643,20.704,26.956l-15.215,15.198c-2.767,2.773-2.767,7.249,0,10.026
		c1.382,1.385,3.202,2.077,5.014,2.077c1.807,0,3.632-0.692,5.01-2.077l15.208-15.213c5.205,4.835,10.713,9.377,16.46,13.578
		c0.137,0.11,0.195,0.265,0.344,0.379c0.202,0.14,0.422,0.193,0.624,0.309c3.111,2.248,6.286,4.397,9.53,6.438l-10.746,18.61
		c-1.951,3.405-0.799,7.727,2.593,9.681c1.108,0.646,2.336,0.956,3.539,0.956c2.451,0,4.828-1.264,6.144-3.548l10.738-18.579
		c9.959,5.276,20.442,9.688,31.381,13.082l-5.543,20.66C329.324,479.379,329.402,480.801,329.841,482.086z M383.069,486.811
		c0,0.024-0.203,0.048-0.203,0.072c-13.549-0.256-27.116-1.256-40.441-2.974c0.477-0.67,0.869-1.428,1.093-2.269l5.645-20.697
		c10.912,2.479,21.907,3.99,33.907,4.427V486.811z M230.597,281.301c0-87.737,71.37-159.121,159.102-159.121
		c14.744,0,29.023,2.02,42.579,5.796l-7.561,27.659c-11.067-3.074-22.725-4.725-34.771-4.725c-72.045,0-130.63,58.494-130.63,130.39
		c0,71.891,58.585,130.387,130.63,130.387c9.667,0,19.059-1.166,28.134-3.173c0.452,8.08,1.549,16.091,3.178,24.056l1.174,4.38
		c-10.572,2.228-21.509,3.444-32.733,3.444C301.966,440.395,230.597,369.028,230.597,281.301z M429.146,461.271
		c0.551,1.69,1.05,3.38,1.626,5.07l4.764,17.766c-12.775,1.594-25.603,2.522-38.582,2.772c0-0.022,0.115-0.045,0.115-0.068v-21.44
		C407.069,464.953,418.708,463.549,429.146,461.271z M417.863,383.096c-0.001,0.026-0.002,0.027-0.005,0.056
		c-8.906,2.439-18.238,3.692-27.911,3.692c-57.385,0-104.217-45.844-105.8-102.844h38.781l31.125,31.197
		c-1.851,4.111-2.896,8.71-2.896,13.504c0,18.155,14.813,32.981,33.017,32.981c18.193,0,33.008-14.771,33.008-32.927
		c0-18.172-14.814-32.937-33.008-32.937c-4.331,0-8.483,0.858-12.299,2.383l-35.065-34.8c-2.329-2.324-5.471-3.402-8.753-3.402
		h-41.729c10.067-48,52.689-84.176,103.619-84.176c28.419,0,54.207,11.178,73.239,29.434c-0.052,0.072-0.106,0.359-0.158,0.432
		C473.518,215.83,481.96,228,487.562,242H446.59c-0.212-1-0.485-1.271-0.737-1.767c0.027-0.082,0.052-0.303,0.08-0.386
		c-5.313-11.122-16.602-18.98-29.761-18.98c-18.232,0-33.056,14.774-33.056,32.949c0,18.165,14.823,32.939,33.056,32.939
		c8.712,0,16.645-3.399,22.551-8.912c0.005-0.067,0.012-0.219,0.017-0.287c3.372-3.206,6.074-6.557,7.851-11.557h47.69
		c0.713,5,1.081,10.069,1.081,15.216C495.362,329.708,462.48,370.73,417.863,383.096z M375.919,328.775
		c0-4.546,3.693-8.239,8.254-8.239c4.548,0,8.249,3.693,8.249,8.239c0,4.523-3.701,8.229-8.249,8.229
		C379.613,337.005,375.919,333.299,375.919,328.775z M424.444,253.807c0,4.54-3.711,8.23-8.271,8.23c-4.563,0-8.265-3.69-8.265-8.23
		c0-4.541,3.702-8.239,8.265-8.239C420.733,245.568,424.444,249.266,424.444,253.807z"/>
</g>
<g id="DouglasQuaid" display="none">
	<path display="inline" fill="#E41319" d="M357.297,111.982c79.654,0,144.438,64.792,144.438,144.437
		c0,79.626-64.783,144.417-144.438,144.417c-18.524,0-36.215-3.561-52.494-9.95c2.033-2.787,3.692-5.603,4.427-8.57
		c1.229-6.129,0.986-12.05-0.079-17.839c14.715,6.596,31.005,10.296,48.145,10.296c65.287,0,118.377-53.102,118.377-118.354
		c0-65.262-53.09-118.367-118.377-118.367c-43.79,0-82.066,23.933-102.532,59.387c-5.329-3.466-12.257-6.018-21.479-7.364
		c0.085-2.431-0.008-4.758-0.242-6.997C258.202,140.58,304.447,111.982,357.297,111.982z"/>
	<path display="inline" fill="#808A93" d="M357.297,160.482c46.158,0,84.768,32.751,93.893,76.218h-37.811
		c-2.972,0-5.806,1.174-7.917,3.276l-31.788,31.788c-3.445-1.383-7.198-2.154-11.137-2.154c-16.479,0-29.903,13.408-29.903,29.904
		c0,16.481,13.424,29.9,29.903,29.9c16.5,0,29.909-13.419,29.909-29.9c0-4.349-0.944-8.464-2.618-12.192l28.201-28.191h35.126
		c-1.433,51.642-43.846,93.205-95.858,93.205c-22.404,0-43.011-7.745-59.352-20.677c-1.586-4.376-2.932-8.757-3.76-13.176
		c8.074-7.922,12.85-19.173,11.418-37.745c-7.386-2.467-12.902-6.233-17.121-10.876c-5.838-8.718-8.986-18.058-11.453-27.186h28.637
		c4.459,10.942,15.197,18.685,27.714,18.685c16.496,0,29.909-13.413,29.909-29.899c0-16.499-13.413-29.918-29.909-29.918
		c-12.535,0-23.268,7.743-27.714,18.717h-33.641c-0.333-1.81-0.675-3.586-1.046-5.34C286.5,182.774,319.302,160.482,357.297,160.482
		z"/>
	<g display="inline">
		<path d="M679.708,251.633c-28.457-60.228-73.127-111.201-129.176-147.44c-57.557-37.2-124.378-56.881-193.234-56.881
			c-66.09,0-130.331,18.159-186.297,52.542l-9.517-24.65c11.881-9.448,17.353-25.448,11.245-40.506
			c-7.037-17.368-26.926-25.78-44.227-18.964c-0.11,0.04-0.22,0.066-0.326,0.109c-17.473,7.082-25.9,27.175-18.859,44.554
			c5.769,14.24,20.828,21.909,35.938,20.418l19.369,50.172c-6.821,3.626-11.392,8.276-15.329,14.498l-13.377-5.665l-4.808,11.386
			l-1.79,4.206l13.375,5.661c-0.894,6.818-1.452,14.467,0.272,21.097l-49.5,21.019c-8.614-12.213-25.438-17.354-39.672-11.578
			c-17.478,7.08-25.938,27.083-18.864,44.558c7.083,17.459,27.177,25.903,44.559,18.853c15.067-6.106,23.567-21.502,21.246-36.277
			l49.495-21.018c12.324,18.999,36.947,27.432,59.133,18.439c9.518-3.86,16.902-10.61,22.102-18.212l35.603,15.066
			c-3.79,13.48-3.376,28.052,2.397,42.297c5.766,14.238,15.619,24.989,27.727,32.029l-15.561,36.764
			c-9.063-1.918-19.021-1.537-28.54,2.318c-25.335,10.268-36.761,38.896-26.832,63.396c3.953,9.771,10.56,17.504,18.724,22.674
			l-5.519,13.026l15.713,6.646l5.564-13.146c6.577,1.478,13.541,1.546,20.579,0.138l20.534,50.665
			c-4.745,3.737-8.32,8.523-10.553,13.826c-3.335,7.913-3.648,16.984-0.193,25.513c7.076,17.463,27.165,25.899,44.542,18.85
			c17.469-7.072,25.902-27.166,18.858-44.547c-3.498-8.631-10.044-15.102-17.916-18.569c6.877,0.41,13.779,0.633,20.704,0.633
			c68.856,0,135.678-19.694,193.234-56.893c56.049-36.24,100.719-87.22,129.176-147.423
			C681.146,258.183,681.146,254.653,679.708,251.633z M147.763,62.258c-1.633,0.661-3.315,0.97-4.991,1.102
			c-7.243,0.591-14.371-3.44-17.228-10.5c-3.2-7.896,0.04-16.824,7.166-21.048c0.716-0.428,1.433-0.856,2.236-1.184
			c8.676-3.517,18.693,0.716,22.218,9.417C160.68,48.738,156.454,58.733,147.763,62.258z M72.852,239.096
			c-8.691,3.526-18.701-0.699-22.226-9.4c-3.525-8.688,0.708-18.685,9.41-22.213c8.691-3.518,18.692,0.708,22.217,9.401
			C85.769,225.573,81.538,235.581,72.852,239.096z M203.098,201.165c-16.643,6.746-34.45-0.796-41.19-17.428
			c-3.602-8.889-2.861-18.18,0.99-25.903c3.354-6.744,9.073-12.293,16.442-15.277c13.984-5.669,30.166-0.676,38.382,12.078
			c1.066,1.659,2.015,3.432,2.794,5.347C227.261,176.619,218.897,194.76,203.098,201.165z M258.04,192.123l-20.505-8.675
			c0.624-2.94,1-5.978,1.1-9.063c26.075-37.653,69.506-62.402,118.663-62.402c79.654,0,144.438,64.792,144.438,144.437
			c0,79.626-64.783,144.417-144.438,144.417c-14.958,0-29.37-2.323-42.936-6.582c4.148-7.783,6.153-16.607,5.621-25.57
			c11.734,3.93,24.278,6.08,37.315,6.08c65.287,0,118.377-53.096,118.377-118.349c0-65.262-53.09-118.363-118.377-118.363
			C315.737,138.052,279.155,159.618,258.04,192.123z M362.538,329.405c16.5,0,29.909-13.415,29.909-29.896
			c0-4.349-0.944-8.525-2.618-12.256L418.03,259h35.126c-1.433,52-43.846,93.271-95.858,93.271
			c-19.157,0-36.991-5.717-51.977-15.436c-2.217-2.145-4.591-4.037-7.056-5.725l15.409-34.761c6.146,1.727,12.517,2.576,18.979,2.45
			c-0.006,0.229-0.018,0.461-0.018,0.691C332.634,315.973,346.058,329.405,362.538,329.405z M355.061,299.515
			c0-4.123,3.372-7.484,7.477-7.484c4.127,0,7.479,3.361,7.479,7.484c0,4.11-3.353,7.468-7.479,7.468
			C358.433,306.982,355.061,303.625,355.061,299.515z M392.612,207.254c-4.955-12.217-12.921-21.874-22.73-28.815
			c-0.011-0.021-0.021-0.046-0.035-0.066c-6.974-4.924-14.403-8.169-21.943-9.798c-0.01,0.034-0.02,0.067-0.031,0.102
			c-8.217-2.205-16.83-2.849-25.511-1.68c10.825-4.294,22.604-6.363,34.937-6.363c46.158,0,84.768,33.367,93.893,76.367h-37.811
			c-2.972,0-5.806,1.025-7.917,3.127l-9.914,9.786l-0.538-0.303C398.794,236.128,398.378,221.491,392.612,207.254z M286.276,249.047
			c-0.89-2.191-1.596-4.047-2.149-7.047h21.541c4.459,11,15.197,19.023,27.714,19.023c16.496,0,29.909-13.244,29.909-29.729
			c0-16.499-13.413-29.464-29.909-29.464c-12.535,0-23.268,8.17-27.714,19.17h-21.72c3.495-15,14.062-28.431,29.163-34.548
			c24.499-9.932,53.456,2.124,63.392,26.637c8.487,20.941,1.335,43.708-15.25,56.61c-8.017,0.342-15.225,3.604-20.404,9.072
			C318.107,283.326,295.056,270.722,286.276,249.047z M325.908,231.463c0-4.117,3.346-7.481,7.473-7.481
			c4.134,0,7.47,3.365,7.47,7.481c0,4.118-3.336,7.466-7.47,7.466C329.254,238.929,325.908,235.581,325.908,231.463z
			 M242.764,383.228c-6.746-16.64,1.619-34.774,17.435-41.18c15.794-6.405,34.426,0.787,41.173,17.431
			c6.74,16.636-0.786,34.433-17.427,41.173C267.304,407.398,249.504,399.866,242.764,383.228z M339.317,489.718
			c3.516,8.692-0.716,18.7-9.409,22.227c-8.683,3.519-18.697-0.716-22.215-9.411c-3.523-8.692,0.715-18.695,9.398-22.217
			C325.784,476.796,335.792,481.024,339.317,489.718z M538.362,389.796c-53.922,34.871-116.541,53.3-181.064,53.3
			c-16.555,0-32.974-1.268-49.165-3.671l-10.837-26.741c0.208-0.133,0.409-0.271,0.614-0.407c18.46,7.073,38.469,10.99,59.388,10.99
			c92.024,0,166.87-74.855,166.87-166.848c0-92.003-74.846-166.856-166.87-166.856c-50.269,0-95.385,22.374-125.994,57.665
			c-10.379-16.541-29.697-25.106-48.605-22.141c-0.617,0.098-1.233,0.163-1.846,0.279l-1.068-2.763l-0.546-1.414
			c53.254-33.645,114.733-51.458,178.06-51.458c64.523,0,127.143,18.44,181.064,53.3c51.032,32.987,92.01,79.03,118.749,133.387
			C630.372,310.77,589.394,356.811,538.362,389.796z"/>
		<path d="M194.625,418.214c-7.081-17.469-27.166-25.897-44.552-18.853c-17.384,7.042-25.854,27.048-18.854,44.553
			c7.078,17.465,27.171,25.897,44.556,18.849C193.986,455.384,202.005,436.426,194.625,418.214z M169.334,446.867
			c-8.694,3.52-18.701-0.705-22.218-9.396c-3.526-8.695,0.715-18.696,9.409-22.222c9.426-3.822,18.701,0.714,22.216,9.403
			C182.266,433.341,178.026,443.342,169.334,446.867z"/>
		<path d="M226.018,493.615l3.137,1.332l6.615-15.78l-15.704-6.65l-6.646,15.698l3.025,1.281c-6.84-1.662-14.238-1.359-21.189,1.455
			c-17.461,7.081-25.93,27.089-18.939,44.595c7.08,17.464,27.173,25.897,44.552,18.847c17.461-7.072,25.906-27.166,18.861-44.551
			C236.873,502.808,232.018,497.26,226.018,493.615z M214.507,538.469c-8.77,3.56-18.775-0.679-22.217-9.397
			c-3.519-8.689,0.717-18.697,9.411-22.22c8.684-3.526,18.69,0.71,22.208,9.401C227.436,524.947,223.2,534.949,214.507,538.469z"/>
		<path d="M52.058,139.787c6.43-2.607,11.434-6.739,15.042-11.779c0.723-1.004,1.472-1.989,2.079-3.063l-1.425,3.372
			c5.154,2.404,10.352,4.718,15.595,6.891l6.552-15.483l-15.65-6.759l-2.123,5c2.093-7.214,1.844-15.199-1.215-22.731
			c-7.082-17.47-27.167-25.898-44.552-18.856c-8.437,3.417-14.731,9.884-18.225,17.6c-3.75,8.26-4.272,17.963-0.632,26.952
			C14.587,138.393,34.683,146.829,52.058,139.787z M23.32,114.526c-1.45-3.58-1.528-7.354-0.576-10.833
			c1.354-4.98,4.863-9.319,9.975-11.394c9.519-3.851,18.7,0.716,22.218,9.409c2.629,6.491,0.928,13.709-3.719,18.413
			c-1.572,1.595-3.487,2.904-5.681,3.797C36.844,127.444,26.845,123.214,23.32,114.526z"/>
		<polygon points="226.42,456.877 242.132,463.522 248.781,447.818 233.076,441.164 		"/>
		<path d="M121.636,132.904l-15.717-6.649l-6.413,15.19c5.377,1.937,10.795,3.719,16.232,5.401L121.636,132.904z"/>
	</g>
</g>
</svg>
